<svg id="SvgjsSvg1011" width="288" height="288" xmlns="http://www.w3.org/2000/svg" version="1.1" xmlns:xlink="http://www.w3.org/1999/xlink" xmlns:svgjs="http://svgjs.com/svgjs"><defs id="SvgjsDefs1012"></defs><g id="SvgjsG1013"><svg xmlns="http://www.w3.org/2000/svg" width="288" fill="currentColor" viewBox="-2 -2 24 24" height="288"><path d="M14.017 0h-8.07A5.954 5.954 0 0 0 0 5.948v8.07a5.954 5.954 0 0 0 5.948 5.947h8.07a5.954 5.954 0 0 0 5.947-5.948v-8.07A5.954 5.954 0 0 0 14.017 0zm3.94 14.017a3.94 3.94 0 0 1-3.94 3.94h-8.07a3.94 3.94 0 0 1-3.939-3.94v-8.07a3.94 3.94 0 0 1 3.94-3.939h8.07a3.94 3.94 0 0 1 3.939 3.94v8.07z" fill="#fbfbfb" class="color000 svgShape"></path><path d="M9.982 4.819A5.17 5.17 0 0 0 4.82 9.982a5.17 5.17 0 0 0 5.163 5.164 5.17 5.17 0 0 0 5.164-5.164A5.17 5.17 0 0 0 9.982 4.82zm0 8.319a3.155 3.155 0 1 1 0-6.31 3.155 3.155 0 0 1 0 6.31z" fill="#fbfbfb" class="color000 svgShape"></path><circle cx="15.156" cy="4.858" r="1.237" fill="#fbfbfb" class="color000 svgShape"></circle></svg></g></svg>