<svg id="SvgjsSvg1001" width="288" height="288" xmlns="http://www.w3.org/2000/svg" version="1.1" xmlns:xlink="http://www.w3.org/1999/xlink" xmlns:svgjs="http://svgjs.com/svgjs"><defs id="SvgjsDefs1002"></defs><g id="SvgjsG1008"><svg xmlns="http://www.w3.org/2000/svg" width="288" fill="currentColor" viewBox="-2 -5 24 24" height="288"><path d="M15.812.017H4.145C1.855.017 0 1.852 0 4.116v5.768c0 2.264 1.856 4.1 4.145 4.1h11.667c2.29 0 4.145-1.836 4.145-4.1V4.116c0-2.264-1.856-4.1-4.145-4.1zM13.009 7.28L7.552 9.855a.219.219 0 0 1-.314-.196V4.35c0-.161.173-.266.318-.193l5.458 2.735a.216.216 0 0 1-.005.389z" fill="#fbfbfb" class="color000 svgShape"></path></svg></g></svg>