<svg width="40" height="40" viewBox="0 0 40 40" fill="none" xmlns="http://www.w3.org/2000/svg">
<g clip-path="url(#clip0_1_22)">
<path d="M2.25189 8.64932C3.27941 9.39164 17.5526 20.0529 18.0851 20.4369C18.6175 20.8208 19.1593 21 20 21C20.8407 21 21.3825 20.8208 21.9149 20.4369C22.4474 20.0529 36.7206 9.39164 37.7481 8.64932C38.1311 8.38055 38.7756 7.8942 38.9158 7.34386C39.1586 6.37116 38.8971 6 37.8602 6H2.13979C1.10293 6 0.841379 6.38396 1.08425 7.34386C1.22436 7.907 1.8689 8.38055 2.25189 8.64932Z" fill="#F0F8FF"/>
<path d="M39.2011 9.19393C38.4127 9.66353 31.3359 15.5225 26.6533 19.0445L34.557 29.3871C34.7493 29.6107 34.8358 29.879 34.7301 30.0132C34.6147 30.1362 34.3647 30.0691 34.1628 29.8567L24.6822 20.554C23.2495 21.6274 22.2399 22.3653 22.0669 22.4771C21.3265 22.9132 20.8073 22.9691 20.0957 22.9691C19.3842 22.9691 18.865 22.9132 18.1246 22.4771C17.9419 22.3653 16.942 21.6274 15.5093 20.554L6.02872 29.8567C5.83642 30.0803 5.57681 30.1474 5.46143 30.0132C5.34605 29.8902 5.43258 29.6107 5.62489 29.3871L13.519 19.0445C8.83636 15.5225 1.68266 9.66353 0.894212 9.19393C0.0480759 8.69078 0 9.28338 0 9.7418V32.6631C0 33.703 1.31728 35 2.25957 35H37.9319C38.8742 35 39.9992 33.6918 39.9992 32.6631V9.7418C39.9992 9.2722 40.0569 8.69078 39.2011 9.19393Z" fill="#F0F8FF"/>
</g>
<defs>
<clipPath id="clip0_1_22">
<rect width="40" height="40" fill="white"/>
</clipPath>
</defs>
</svg>
