<svg width="1000" height="1000" viewBox="0 0 1000 1000" fill="none" xmlns="http://www.w3.org/2000/svg">
<g filter="url(#filter0_d_1_2)">
<path d="M173.17 463.022C165.209 431.892 161.229 416.327 160.471 405.501C155.17 329.755 220.701 268.208 295.967 278.244C306.724 279.679 322.161 284.676 353.034 294.669V294.669C358.204 296.343 360.788 297.179 363.294 297.872C384.207 303.653 406.296 303.653 427.209 297.872C429.714 297.179 432.296 296.344 437.461 294.672V294.672C462.559 286.547 475.109 282.485 483.64 281.03C563.332 267.434 633.376 334.968 622.694 415.103C621.551 423.681 618.037 436.06 611.01 460.816V460.816C609.789 465.118 609.178 467.269 608.656 469.404C604.11 487.987 604.075 507.388 608.554 525.987C609.069 528.124 609.702 530.386 610.969 534.91V534.91C620.326 568.332 625.005 585.042 625.96 596.354C632.275 671.13 569.145 733.274 494.477 725.783C483.182 724.65 467.27 719.923 435.447 710.47V710.47C429.458 708.691 426.463 707.802 423.484 707.08C404.93 702.587 385.572 702.587 367.019 707.08C364.039 707.802 360.995 708.706 354.906 710.515V710.515C317.853 721.521 299.326 727.024 286.163 727.942C215.481 732.868 155.956 675.773 157.935 604.947C158.304 591.757 162.953 573.325 172.252 536.459L173.302 532.296C174.574 527.252 175.21 524.73 175.731 522.218C179.084 506.036 179.057 489.336 175.65 473.165C175.122 470.655 174.471 468.111 173.17 463.022V463.022Z" fill="#666666"/>
</g>
<defs>
<filter id="filter0_d_1_2" x="3.91647" y="129.681" width="776.451" height="759.012" filterUnits="userSpaceOnUse" color-interpolation-filters="sRGB">
<feFlood flood-opacity="0" result="BackgroundImageFix"/>
<feColorMatrix in="SourceAlpha" type="matrix" values="0 0 0 0 0 0 0 0 0 0 0 0 0 0 0 0 0 0 127 0" result="hardAlpha"/>
<feOffset dy="6.48298"/>
<feGaussianBlur stdDeviation="76.9854"/>
<feComposite in2="hardAlpha" operator="out"/>
<feColorMatrix type="matrix" values="0 0 0 0 0 0 0 0 0 0 0 0 0 0 0 0 0 0 0.25 0"/>
<feBlend mode="normal" in2="BackgroundImageFix" result="effect1_dropShadow_1_2"/>
<feBlend mode="normal" in="SourceGraphic" in2="effect1_dropShadow_1_2" result="shape"/>
</filter>
</defs>
</svg>
