<svg width="1000" height="1000" viewBox="0 0 1000 1000" fill="none" xmlns="http://www.w3.org/2000/svg">
<g clip-path="url(#clip0_1_2)">
<g filter="url(#filter0_d_1_2)">
<path d="M142 424.836C142 400.755 142 388.714 142.913 378.565C152.746 269.318 239.318 182.746 348.565 172.913C358.714 172 370.755 172 394.836 172V172C418.918 172 430.959 172 441.108 172.913C550.355 182.746 636.927 269.318 646.759 378.565C647.673 388.714 647.673 400.755 647.673 424.836V509.115C647.673 560.456 647.673 586.127 639.517 606.458C627.986 635.204 605.204 657.986 576.458 669.517C556.127 677.673 530.456 677.673 479.115 677.673H310.557C259.217 677.673 233.546 677.673 213.215 669.517C184.469 657.986 161.686 635.204 150.156 606.458C142 586.127 142 560.456 142 509.115V424.836Z" fill="#8E8E8E"/>
</g>
</g>
<defs>
<filter id="filter0_d_1_2" x="-11.9708" y="24.5122" width="813.614" height="813.614" filterUnits="userSpaceOnUse" color-interpolation-filters="sRGB">
<feFlood flood-opacity="0" result="BackgroundImageFix"/>
<feColorMatrix in="SourceAlpha" type="matrix" values="0 0 0 0 0 0 0 0 0 0 0 0 0 0 0 0 0 0 127 0" result="hardAlpha"/>
<feOffset dy="6.48298"/>
<feGaussianBlur stdDeviation="76.9854"/>
<feComposite in2="hardAlpha" operator="out"/>
<feColorMatrix type="matrix" values="0 0 0 0 0 0 0 0 0 0 0 0 0 0 0 0 0 0 0.25 0"/>
<feBlend mode="normal" in2="BackgroundImageFix" result="effect1_dropShadow_1_2"/>
<feBlend mode="normal" in="SourceGraphic" in2="effect1_dropShadow_1_2" result="shape"/>
</filter>
<clipPath id="clip0_1_2">
<rect width="1000" height="1000" fill="white"/>
</clipPath>
</defs>
</svg>
