<svg width="1000" height="1000" viewBox="0 0 1000 1000" fill="none" xmlns="http://www.w3.org/2000/svg">
<g clip-path="url(#clip0_1_2)">
<g filter="url(#filter0_d_1_2)">
<path d="M244.376 244.616C293.754 159.091 318.443 116.329 350.675 101.978C378.79 89.4606 410.896 89.4606 439.01 101.978C471.243 116.329 495.932 159.091 545.309 244.616L626.157 384.648C675.535 470.173 700.224 512.935 696.536 548.025C693.319 578.632 677.266 606.436 652.368 624.525C623.823 645.264 574.446 645.264 475.691 645.264H313.995C215.24 645.264 165.862 645.264 137.317 624.525C112.42 606.436 96.3669 578.632 93.15 548.025C89.4619 512.935 114.151 470.173 163.528 384.648L244.376 244.616Z" fill="#D9D9D9"/>
</g>
</g>
<defs>
<filter id="filter0_d_1_2" x="-61.1814" y="-54.8979" width="912.048" height="860.616" filterUnits="userSpaceOnUse" color-interpolation-filters="sRGB">
<feFlood flood-opacity="0" result="BackgroundImageFix"/>
<feColorMatrix in="SourceAlpha" type="matrix" values="0 0 0 0 0 0 0 0 0 0 0 0 0 0 0 0 0 0 127 0" result="hardAlpha"/>
<feOffset dy="6.48298"/>
<feGaussianBlur stdDeviation="76.9854"/>
<feComposite in2="hardAlpha" operator="out"/>
<feColorMatrix type="matrix" values="0 0 0 0 0 0 0 0 0 0 0 0 0 0 0 0 0 0 0.25 0"/>
<feBlend mode="normal" in2="BackgroundImageFix" result="effect1_dropShadow_1_2"/>
<feBlend mode="normal" in="SourceGraphic" in2="effect1_dropShadow_1_2" result="shape"/>
</filter>
<clipPath id="clip0_1_2">
<rect width="1000" height="1000" fill="white"/>
</clipPath>
</defs>
</svg>
