<svg width="37" height="37" viewBox="0 0 37 37" fill="none" xmlns="http://www.w3.org/2000/svg">
<g filter="url(#filter0_d_3_37)">
<path d="M7 13C7 10.2386 9.23858 8 12 8H24C26.7614 8 29 10.2386 29 13V14C29 22.2843 22.2843 29 14 29H12C9.23858 29 7 26.7614 7 24V13Z" fill="#E9E9FF"/>
<path d="M12 10H24C25.6569 10 27 11.3431 27 13V14C27 21.1797 21.1797 27 14 27H12C10.3431 27 9 25.6569 9 24V13C9 11.3431 10.3431 10 12 10Z" stroke="#B0C7D0" stroke-width="4"/>
</g>
<defs>
<filter id="filter0_d_3_37" x="3" y="8" width="30" height="29" filterUnits="userSpaceOnUse" color-interpolation-filters="sRGB">
<feFlood flood-opacity="0" result="BackgroundImageFix"/>
<feColorMatrix in="SourceAlpha" type="matrix" values="0 0 0 0 0 0 0 0 0 0 0 0 0 0 0 0 0 0 127 0" result="hardAlpha"/>
<feOffset dy="4"/>
<feGaussianBlur stdDeviation="2"/>
<feComposite in2="hardAlpha" operator="out"/>
<feColorMatrix type="matrix" values="0 0 0 0 0 0 0 0 0 0 0 0 0 0 0 0 0 0 0.25 0"/>
<feBlend mode="normal" in2="BackgroundImageFix" result="effect1_dropShadow_3_37"/>
<feBlend mode="normal" in="SourceGraphic" in2="effect1_dropShadow_3_37" result="shape"/>
</filter>
</defs>
</svg>
