<svg width="28" height="28" viewBox="0 0 28 28" fill="none" xmlns="http://www.w3.org/2000/svg">
<path d="M21.4971 15.4531L14.8086 22.291C14.5713 22.5371 14.3076 22.6514 14 22.6514C13.6924 22.6514 13.4111 22.5283 13.1826 22.291L6.50293 15.4531C6.30957 15.251 6.2041 15.0137 6.2041 14.7236C6.2041 14.1348 6.66113 13.6777 7.24121 13.6777C7.52246 13.6777 7.79492 13.792 7.99707 13.9941L13.9912 20.1553L20.0029 13.9941C20.2051 13.792 20.4687 13.6777 20.7588 13.6777C21.3389 13.6777 21.7959 14.1348 21.7959 14.7236C21.7959 15.0049 21.6904 15.251 21.4971 15.4531Z" fill="#FFFFFF"/>
</svg>
